<svg width="255" height="280" xmlns="http://www.w3.org/2000/svg">
 <g>
  <title>Layer 1</title>
  <g id="svg_1">
   <g id="svg_2">
    <g transform="matrix(0.842531 0 0 0.838581 -30.6794 -82.5283)" id="svg_3">
     <g id="svg_4">
      <path d="m133.7528,294.03755c0,0 100.548,-42.336 67.701,100l13.504,9.672c11.557,-2.737 17.335,0.608 15.511,10.036l-30.964,0" stroke=" rgb(0, 0, 0)" fill=" rgba(0, 0, 0, 0)" stroke-width=" 3.56907px" id="svg_5"/>
      <path d="m201.7458,310.02555l49.853,103.72l27.346,0c0.607,-3.607 -9.32,-6.95 -11.689,-10.82c-9.924,-16.188 -26.354,-58.749 -50.849,-130.105" stroke=" rgb(0, 0, 0)" fill=" rgba(0, 0, 0, 0)" stroke-width=" 3.56907px" id="svg_6"/>
      <path d="m64.4368,379.23155c-2.958,-63.81 47.244,-106.411 69.316,-171.431c7.245,-21.342 31.938,-50.424 34.89,-59.174c10.884,-32.26 36.054,-40.559 56.21,-37.791c26.036,3.575 28.185,30.791 40.321,40.213c9.386,7.287 28.941,5.588 28.796,14.518c-0.035,2.132 -8.035,17.734 -8,19.866c0.153,9.596 -17.319,10.795 -45.093,7.596l-8.625,12.228c5.415,7.11 7.498,51.115 -16.009,67.564" stroke=" rgb(0, 0, 0)" fill=" rgba(0, 0, 0, 0)" stroke-width=" 3.56907px" id="svg_7"/>
      <path d="m204.8598,380.48655c13.25,-3.736 21.993,13.551 19.784,13.698l-20.916,0" stroke=" rgb(0, 0, 0)" fill=" rgba(0, 0, 0, 0)" stroke-width=" 3.56907px" id="svg_8"/>
      <path d="m64.2338,379.95755c-16.669,0 -20.96,40.429 4.266,40.429c65.253,0 85.746,0 133.246,-1.155" stroke=" rgb(0, 0, 0)" fill=" rgba(0, 0, 0, 0)" stroke-width=" 3.56907px" id="svg_9"/>
      <path d="m68.4998,384.38655c3.667,7.609 26.333,10.219 42,9.828c30.915,-0.772 91.005,0 91.005,26.172" stroke=" rgb(0, 0, 0)" fill=" rgba(0, 0, 0, 0)" stroke-width=" 3.56907px" id="svg_10"/>
      <path d="m214.7278,126.23155c-24.223,16 -34.876,28.333 -24.223,36c7.564,5.443 13.953,13.215 22.778,16.208c11.57,3.924 11.57,-11.131 11.57,-44.56c0,-2.539 1.982,-2.328 5.947,0.632" stroke=" rgb(0, 0, 0)" fill=" rgba(0, 0, 0, 0)" stroke-width=" 3.56907px" id="svg_11"/>
     </g>
    </g>
   </g>
   <g id="svg_12">
    <g transform="matrix(1 0 0 1 1 -1)" id="svg_13">
     <g transform="matrix(1 0 0 1 0 -3)" id="svg_14">
      <path d="m168.659,107.224c9.931,16.889 11.288,22.776 11.288,22.776c29.308,-8.362 50.767,-14.543 50.767,-14.543c7.649,-14.05 12.267,-15.84 12.267,-7.675c0,13.53 0.518,19.417 -1.105,20.218c-13.72,6.774 -17.514,5.843 -73.095,24.598c-4.181,1.411 -8.054,-0.524 -11.622,-5.805" stroke=" rgb(0, 0, 0)" fill=" transparent" stroke-linecap=" round" stroke-width=" 3px" id="svg_15"/>
      <ellipse cx="212.675" cy="61.095" rx="4.157" ry="4.595" stroke=" rgb(0, 0, 0)" id="svg_16"/>
     </g>
    </g>
   </g>
  </g>
 </g>

</svg>