<?xml version="1.0" standalone="no"?>
<!DOCTYPE svg PUBLIC "-//W3C//DTD SVG 20010904//EN"
 "http://www.w3.org/TR/2001/REC-SVG-20010904/DTD/svg10.dtd">
<svg version="1.0" xmlns="http://www.w3.org/2000/svg"
 width="1280.000000pt" height="918.000000pt" viewBox="0 0 1280.000000 918.000000"
 preserveAspectRatio="xMidYMid meet">
<metadata>
Created by potrace 1.15, written by Peter Selinger 2001-2017
</metadata>
<g transform="translate(0.000000,918.000000) scale(0.100000,-0.100000)"
fill="#000000" stroke="none">
<path d="M11008 9170 c-385 -32 -682 -132 -835 -279 -25 -24 -52 -41 -65 -41
-44 0 -173 -41 -241 -78 -86 -44 -207 -157 -292 -271 -36 -47 -102 -158 -148
-246 -46 -88 -116 -211 -156 -273 -89 -139 -112 -193 -113 -257 -1 -57 15 -95
72 -171 59 -79 87 -142 120 -274 17 -68 37 -138 45 -156 l13 -32 -122 -22
c-168 -31 -420 -95 -540 -137 -56 -20 -209 -86 -341 -148 -413 -195 -490 -219
-705 -219 -74 0 -166 5 -205 12 -92 15 -391 39 -640 51 -809 40 -1559 12
-1986 -74 -202 -41 -314 -86 -485 -196 -81 -52 -103 -62 -215 -88 -388 -92
-738 -129 -1047 -111 -371 22 -936 163 -1372 342 -189 78 -178 75 -175 43 3
-19 0 -25 -10 -21 -8 3 -114 80 -235 171 -492 370 -587 415 -1098 520 -94 19
-178 37 -189 40 -10 4 22 -16 72 -42 l90 -48 -47 -3 -47 -3 -6 -44 c-8 -50 0
-96 26 -145 24 -47 50 -73 186 -187 l117 -98 -50 -6 -49 -5 207 -103 c115 -56
208 -104 208 -106 0 -3 -25 -19 -55 -36 -30 -17 -55 -34 -55 -37 0 -11 285
-172 475 -268 404 -204 889 -382 1275 -468 201 -45 328 -56 623 -56 265 0 273
-1 322 -24 28 -13 65 -40 84 -59 l34 -36 -65 -98 c-86 -130 -112 -174 -145
-258 -26 -66 -28 -78 -27 -225 1 -85 9 -270 19 -410 24 -337 24 -732 1 -900
-39 -288 -77 -412 -201 -655 -51 -99 -118 -238 -150 -310 -129 -294 -269 -573
-366 -732 l-42 -68 9 -290 c13 -420 9 -601 -16 -830 -25 -223 -29 -419 -10
-510 23 -112 88 -162 226 -172 82 -6 153 13 177 48 12 16 19 17 48 9 51 -15
166 -12 198 5 35 18 79 68 87 100 12 48 -56 129 -141 165 -27 12 -64 28 -81
35 l-31 13 8 53 c5 30 16 160 24 290 8 130 22 276 30 325 35 204 124 491 214
694 82 185 172 304 305 404 40 30 127 112 193 181 l121 125 55 -162 c30 -90
96 -279 146 -420 133 -377 196 -690 211 -1048 9 -208 25 -291 60 -310 33 -18
249 -49 409 -59 123 -8 160 -7 186 3 66 28 102 109 91 210 -10 98 -49 149
-168 221 -40 24 -81 98 -102 180 -18 71 -88 446 -110 590 -41 264 -42 510 -3
623 42 121 135 228 385 444 217 187 375 339 455 438 144 179 290 440 382 685
27 72 52 134 56 139 5 6 65 -4 146 -24 382 -91 1187 -359 1903 -633 345 -132
550 -205 711 -252 l125 -37 38 -305 c38 -309 53 -385 125 -660 59 -223 75
-312 125 -693 84 -641 87 -700 43 -902 -52 -245 -40 -268 208 -388 179 -86
342 -127 412 -103 19 7 45 7 81 0 57 -12 138 -1 193 27 22 11 37 12 55 6 39
-15 78 -12 138 11 63 23 106 67 106 108 0 22 -14 39 -62 81 -74 62 -161 160
-222 250 -41 60 -45 73 -55 160 -6 52 -52 457 -101 900 l-91 805 22 80 c14 54
24 130 30 240 11 207 15 222 84 273 30 23 55 40 55 37 0 -5 88 -604 105 -715
26 -169 54 -537 70 -940 14 -323 45 -733 57 -749 57 -74 98 -116 136 -141 l45
-30 201 0 c113 0 218 5 240 11 58 16 130 90 173 175 31 64 35 79 29 120 -3 26
-21 77 -39 113 -19 36 -69 136 -113 221 -134 262 -167 395 -167 675 0 275 29
471 177 1215 85 427 114 632 123 875 l6 169 42 56 c118 155 210 331 243 465
43 171 84 454 127 880 15 138 30 254 36 260 6 5 9 5 9 -3 0 -7 4 -12 8 -12 27
0 79 196 168 635 31 154 61 286 67 293 6 8 34 25 61 40 62 31 136 34 369 13
128 -12 171 -13 229 -3 140 24 166 60 175 242 3 66 9 120 13 120 4 0 24 -26
45 -57 21 -31 66 -86 100 -121 120 -123 129 -65 35 223 -50 150 -64 207 -68
270 -6 109 19 234 74 374 35 86 44 121 40 146 -4 17 -38 74 -78 126 -51 67
-96 145 -156 269 -125 260 -188 401 -222 498 -17 48 -42 101 -55 118 -24 32
-114 84 -145 84 -8 0 -39 27 -68 59 -87 99 -216 162 -406 198 -97 18 -479 26
-638 13z"/>
</g>
</svg>
