<?xml version="1.0" standalone="no"?>
<!DOCTYPE svg PUBLIC "-//W3C//DTD SVG 20010904//EN"
 "http://www.w3.org/TR/2001/REC-SVG-20010904/DTD/svg10.dtd">
<svg version="1.0" xmlns="http://www.w3.org/2000/svg"
 width="1276.000000pt" height="1280.000000pt" viewBox="0 0 1276.000000 1280.000000"
 preserveAspectRatio="xMidYMid meet">
<metadata>
Created by potrace 1.15, written by Peter Selinger 2001-2017
</metadata>
<g transform="translate(0.000000,1280.000000) scale(0.100000,-0.100000)"
fill="#000000" stroke="none">
<path d="M9410 12770 c-47 -16 -95 -29 -108 -30 -35 0 -100 -37 -154 -87 -48
-45 -49 -46 -87 -35 -21 7 -53 12 -71 12 -98 0 -605 -225 -800 -356 -125 -83
-165 -120 -266 -246 -93 -115 -133 -183 -134 -223 0 -12 -25 -45 -56 -75 -74
-73 -138 -171 -160 -245 -13 -45 -17 -90 -16 -179 2 -139 -2 -150 -81 -200
-121 -77 -206 -218 -215 -352 -3 -44 0 -92 8 -119 16 -57 77 -127 135 -155 48
-23 53 -34 32 -65 -8 -11 -47 -99 -87 -195 -110 -266 -110 -265 -204 -300 -26
-10 -50 -29 -66 -54 -15 -21 -40 -44 -57 -51 -17 -7 -43 -30 -59 -51 -70 -94
-116 -129 -199 -153 -44 -12 -98 -36 -120 -52 -61 -45 -128 -74 -311 -138
-538 -187 -757 -307 -1013 -555 -277 -268 -492 -422 -910 -653 -130 -71 -201
-132 -320 -271 -29 -35 -133 -127 -230 -205 -522 -419 -730 -630 -960 -972
-99 -147 -153 -242 -352 -617 -292 -551 -363 -667 -522 -860 -163 -197 -253
-356 -355 -628 -101 -269 -159 -493 -296 -1140 -19 -91 -51 -214 -71 -275 -34
-105 -93 -323 -111 -412 -9 -40 -20 -51 -214 -205 -113 -90 -259 -203 -325
-252 -147 -109 -337 -299 -427 -426 -85 -119 -171 -290 -199 -395 -29 -106
-31 -273 -5 -360 45 -150 154 -293 299 -393 224 -154 684 -365 1067 -490 85
-28 285 -85 444 -127 159 -42 296 -79 305 -82 9 -2 -1 5 -21 17 -21 11 -38 22
-38 24 0 2 48 -12 108 -29 226 -69 359 -88 735 -105 327 -14 453 -13 644 10
92 11 216 23 275 28 99 8 114 13 200 55 207 103 317 164 378 210 l65 49 -75
-7 c-41 -4 -97 -13 -124 -20 -34 -9 -58 -10 -75 -3 -14 5 -42 6 -61 3 l-35 -7
25 27 c13 14 60 48 103 76 43 28 77 52 75 54 -2 1 -43 -5 -93 -15 -148 -29
-185 -32 -179 -15 8 21 -94 20 -198 -1 -82 -17 -105 -14 -74 9 16 12 4 15 -84
25 -57 6 -107 15 -113 21 -6 6 0 19 19 37 23 21 25 25 9 21 -11 -3 -56 -11
-100 -17 -96 -14 -171 -10 -167 8 1 9 -33 12 -145 12 -140 1 -283 12 -304 26
-5 3 1 14 13 24 l23 18 -30 13 c-20 8 -102 13 -242 14 -232 3 -249 7 -240 55
l6 26 -71 -24 c-68 -23 -76 -23 -172 -12 -128 14 -367 55 -472 80 -108 25
-481 173 -673 266 -237 115 -392 227 -434 317 -26 53 -22 150 7 213 48 104
187 213 401 315 180 86 165 88 198 -30 33 -113 77 -186 140 -232 66 -48 96
-61 159 -67 68 -6 67 -4 124 -132 98 -217 185 -330 256 -330 16 0 30 -10 41
-30 22 -36 39 -38 59 -8 15 23 15 22 37 -20 25 -50 55 -55 91 -17 l24 25 12
-30 c17 -39 63 -66 149 -85 57 -14 117 -16 320 -13 l250 3 85 -28 c99 -33 132
-32 230 10 l65 27 315 1 c173 1 358 7 410 13 113 14 228 40 236 54 4 5 11 -1
18 -13 15 -30 42 -37 153 -38 124 -1 189 -16 211 -48 40 -58 49 -63 114 -63
49 0 77 7 127 30 l64 31 22 -21 c29 -27 71 -25 117 6 37 26 39 26 72 10 31
-14 40 -15 75 -3 34 12 41 12 45 0 7 -17 37 -4 79 36 l29 26 17 -22 c18 -21
18 -21 34 -2 9 10 23 16 31 13 9 -3 17 3 21 16 4 12 25 35 48 51 45 33 66 62
67 93 0 19 1 18 23 -2 13 -12 26 -22 30 -22 3 0 3 54 0 119 l-6 119 39 17 c21
9 68 47 104 84 49 51 77 72 115 84 27 10 61 29 76 43 l26 25 31 -25 c30 -26
48 -31 74 -21 19 8 8 286 -14 336 -20 45 -82 115 -118 134 -38 20 -257 74
-349 86 -61 8 -103 7 -192 -5 -63 -8 -152 -18 -199 -21 -297 -22 -406 -37
-509 -71 -122 -40 -111 -37 -111 -21 0 14 95 109 217 216 79 69 93 96 114 215
9 55 19 77 45 106 56 62 107 181 222 523 l37 108 130 98 c138 106 188 149 220
194 14 19 34 31 65 38 52 12 100 45 276 191 171 141 211 192 451 563 158 246
198 303 208 293 3 -3 -6 -36 -20 -73 -29 -77 -27 -97 4 -37 26 51 88 112 113
112 14 0 27 18 48 64 16 36 38 70 50 76 77 41 136 -49 161 -245 5 -44 17 -93
26 -108 19 -36 12 -102 -27 -252 -17 -61 -34 -153 -40 -205 -13 -125 -13 -129
4 -107 33 43 49 4 65 -158 35 -349 43 -487 39 -683 -4 -186 -6 -212 -26 -256
-32 -72 -44 -159 -40 -303 3 -115 5 -131 26 -157 13 -17 22 -43 22 -63 0 -18
13 -57 28 -87 16 -29 31 -63 34 -74 8 -28 23 -28 52 2 l24 23 11 -24 c6 -13
22 -28 36 -33 16 -6 25 -17 25 -30 0 -25 26 -78 78 -158 20 -32 46 -82 57
-112 28 -74 184 -246 257 -283 29 -15 66 -27 82 -27 20 0 40 -12 67 -39 44
-46 106 -70 141 -54 17 7 29 6 45 -4 18 -12 29 -13 58 -3 38 12 100 6 122 -12
8 -6 27 -7 50 -2 21 4 54 7 73 5 50 -3 123 22 168 58 l39 30 24 -25 c42 -45
56 -48 74 -14 11 21 23 30 40 30 13 0 27 5 30 11 5 7 14 4 27 -8 20 -18 20
-18 16 102 -4 139 -11 154 -92 212 -28 20 -76 60 -107 89 -31 30 -82 64 -112
78 -39 17 -60 34 -72 56 -9 18 -37 57 -61 87 -25 30 -65 98 -89 150 -25 53
-56 110 -69 127 -12 17 -29 42 -36 56 -44 82 -52 293 -19 484 28 165 28 255
-1 424 -22 133 -23 150 -11 225 7 45 17 195 21 332 4 138 10 258 15 268 14 32
39 13 64 -48 19 -48 23 -79 25 -170 1 -102 4 -115 27 -151 64 -97 80 -242 69
-629 -3 -98 1 -135 18 -200 36 -138 47 -239 32 -304 -21 -88 -16 -215 10 -291
12 -36 27 -68 33 -72 7 -4 22 0 35 8 18 12 27 13 35 5 16 -16 47 -14 53 4 10
25 24 6 24 -34 0 -20 6 -46 14 -57 13 -16 18 -17 35 -6 12 6 22 12 24 12 2 0
21 -36 41 -80 21 -44 46 -86 56 -93 10 -7 24 -32 31 -55 l12 -43 23 28 22 28
30 -29 c30 -28 30 -28 41 -7 16 29 39 26 53 -7 7 -15 13 -29 15 -31 1 -2 9 4
18 13 23 23 81 20 150 -9 70 -29 135 -32 171 -9 23 16 26 16 47 -4 14 -13 30
-19 43 -16 12 3 27 -2 38 -15 24 -27 32 -26 40 2 13 47 21 52 57 29 49 -30
163 -27 189 5 22 27 28 28 51 7 15 -14 19 -13 42 10 17 16 37 26 56 26 51 0
79 20 97 67 15 38 15 53 4 121 -15 94 -60 193 -101 223 -41 29 -186 90 -228
97 -27 3 -52 22 -106 76 -76 78 -120 155 -150 266 -22 81 -48 133 -118 233
-43 60 -57 90 -62 130 -4 28 -20 102 -36 163 -64 256 -61 529 9 732 l37 107
-3 172 c-2 148 1 180 18 235 18 56 19 80 14 218 -9 207 4 304 92 686 38 169
59 235 98 309 24 45 27 66 36 221 21 364 67 474 328 783 159 188 161 216 36
544 l-19 48 38 109 c24 72 37 128 37 162 0 29 7 96 15 148 16 94 16 94 -9 150
-40 90 -39 142 5 191 50 56 67 103 84 232 4 30 29 91 66 162 99 190 154 341
204 560 8 39 21 83 27 98 10 26 14 28 47 21 20 -4 47 -6 61 -4 29 3 61 3 270
-3 221 -6 323 -38 347 -107 l11 -35 58 3 c47 3 68 -2 110 -23 l53 -27 140 16
c128 15 145 15 213 0 40 -9 110 -17 155 -18 72 -1 84 2 105 22 13 12 31 22 39
22 25 1 103 40 130 66 l27 25 35 -43 c51 -64 92 -134 122 -213 61 -160 65
-165 128 -165 21 0 51 11 78 30 137 90 230 322 199 498 -27 154 -116 318 -240
443 l-86 85 39 25 c58 35 243 210 302 284 71 90 121 178 136 238 8 35 24 66
50 94 45 49 71 99 94 177 30 104 2 178 -88 230 -77 45 -380 168 -537 218 -85
27 -206 72 -268 99 -62 27 -163 63 -225 80 -122 33 -232 81 -287 126 -20 15
-92 86 -160 157 l-125 128 -5 142 c-5 132 -7 144 -33 189 -33 56 -197 205
-319 289 -148 101 -229 191 -421 463 -84 119 -126 145 -285 175 -164 31 -257
36 -311 17 -41 -15 -45 -15 -71 5 -44 32 -103 31 -200 -2z"/>
</g>
</svg>
